PathFileType	4	(X/Y/Z)	T1_P2_NoVision_NoMovement_4_0-734.trc
DataRate	CameraRate	NumFrames	NumMarkers	Units	OrigDataRate	OrigDataStartFrame	OrigNumFrames
60	60	6	27	m	60	0	734
Frame#	Time	RHip			RKnee			RAnkle			RBigToe			RSmallToe			RHeel			LHip			LKnee			LAnkle			LBigToe			LSmallToe			LHeel			Neck			Head			Nose			RShoulder			RElbow			RWrist			RThumb			RIndex			RPinky			LShoulder			LElbow			LWrist			LThumb			LIndex			LPinky		
		X1	Y1	Z1	X2	Y2	Z2	X3	Y3	Z3	X4	Y4	Z4	X5	Y5	Z5	X6	Y6	Z6	X7	Y7	Z7	X8	Y8	Z8	X9	Y9	Z9	X10	Y10	Z10	X11	Y11	Z11	X12	Y12	Z12	X13	Y13	Z13	X14	Y14	Z14	X15	Y15	Z15	X16	Y16	Z16	X17	Y17	Z17	X18	Y18	Z18	X19	Y19	Z19	X20	Y20	Z20	X21	Y21	Z21	X22	Y22	Z22	X23	Y23	Z23	X24	Y24	Z24	X25	Y25	Z25	X26	Y26	Z26	X27	Y27	Z27
1	0.016666666666666666	472.5596884807168	3626.0750586864815	525.9053779349373	868.4175104887663	3678.9187032031546	545.9414645164549	1259.4359191942024	3747.4803823288457	618.4527024186681	1322.880788499058	3611.690637217712	557.3125627239199	1322.2966804862233	3678.840979681368	522.9894214281063	1276.1103032212043	3702.957190806471	618.4952109350443	473.44780580799465	3515.2562792146705	727.6535726142633	871.0151902142742	3550.5110837289685	739.8600957842615	1238.766685139245	3597.9919164816997	726.7346558753912	1317.1799809688264	3508.921152379573	678.5895209051286	1270.5788562912487	3441.9923298035956	703.2924695858454	1267.3000709663988	3603.332642334197	704.7477259451642	-108.48898255025406	3542.1143807804892	643.5631793002259	-373.62148048814663	3503.2188433356378	629.2917655559087	-221.32655698274309	3448.8158094280907	598.9032784636798	-39.877140939232845	3700.5596090350177	539.6213436193757	199.57716652281235	3642.25195534884	422.8664014178987	358.0309259712514	3447.6985167125945	467.6244566643044	425.899373492571	3489.236709109564	579.1533612743327	444.97517997449825	3471.937477068249	597.6728504499645	472.88066196409545	3431.059383226661	560.2943673494788	-14.835673897539868	3518.5282831530003	802.3951076120255	226.56314165879596	3355.3908269141684	725.5200398065308	366.74247326777845	3391.4075931669763	574.6251780049562	414.50156561622487	3432.831479555754	485.7689507638087	442.08956460594266	3433.6302899691914	485.9954494430734	464.29224283262926	3393.1827444954447	531.9551761468585
2	0.03333333333333333	468.44455854678193	3631.5485817570925	528.6712374571125	872.8866107264138	3695.878442194827	552.8161750012368	1245.6224530141346	3723.6184497894615	611.1282760913701	1318.0524185269917	3610.152959215901	555.5655535673966	1310.3312623252802	3673.8872543099424	520.8947127278324	1272.8919794222695	3707.1489729103096	620.8494424533669	473.098148122276	3515.130864931968	727.4347689564927	870.6765310481613	3550.4985192074264	739.5434224997174	1236.055003060361	3602.993773971784	729.5016444188208	1311.3231956349146	3505.5296013691386	677.9983301682597	1270.6305189662332	3442.2706608070744	703.4977870801883	1274.4087306477325	3618.908337740014	718.2580896149582	-112.97241013237492	3538.4446368895674	641.9654754872063	-373.6054186435654	3503.0736636710894	629.2409684294508	-221.3308539306534	3448.444206053	598.6555070163863	-40.27607065575371	3678.607734669823	534.6715160252918	196.45633345656123	3658.9425872004254	426.128604097162	357.87624534635285	3447.5537405899263	467.5360960948245	409.1073901098184	3415.302015127225	541.5690115614915	441.6253021096036	3456.4191499111216	584.6746413565173	475.8494927607667	3449.948717685834	565.3431361303377	-14.985098334970758	3520.5648575777486	798.3062145704816	222.56525138736677	3357.848783107997	732.7509494474554	366.85977790577465	3391.4762178423416	574.7597086555609	416.52269379456203	3417.612558574157	482.8489485817563	437.5462663075992	3431.684405282005	485.2812222115726	460.9181876966915	3373.9154475013097	526.2889886174501
3	0.05	468.00906538928115	3631.214659340766	528.3571657546255	863.5928661724297	3683.165495056372	547.606415874221	1256.7877400789262	3753.863294896794	621.6100650861874	1322.7121689277094	3611.9178555388703	557.1791521464761	1315.6984162753952	3674.6102577512484	522.1807970294049	1281.09109563111	3730.265969909351	627.0362290687984	468.39705419033845	3513.704348377482	726.2542403849606	865.730859567898	3549.4600328654465	738.2194918540616	1230.9564914961652	3604.5790456831364	724.1222386778077	1302.9639877059446	3472.415324113004	664.0649757795121	1277.6168239546855	3455.8867334392467	716.0820482020695	1274.777774723266	3618.7066207348885	717.9428313035221	-108.52261550916015	3544.365750957741	639.2830977786915	-373.57663697997754	3502.941251176219	629.206147231687	-221.30877268344426	3448.3011192124372	598.5076861170583	-44.78543435615385	3699.4132477183493	539.4668587167457	196.5367740316634	3658.9732316144223	426.24498232190086	353.62131552086134	3445.783627319679	466.49512001262104	422.82778501055304	3452.9634441226654	549.4900461811917	443.0771053966991	3470.137729112905	586.3697248233585	475.98445197377623	3449.979494515814	565.0255449195528	-14.894644098198611	3520.345090459838	797.9891353710115	222.47226763840118	3354.4216228811474	724.649926898754	366.86669274855836	3391.6984157317665	574.7484455391362	419.18167806996087	3435.83972481802	486.87555625940075	437.72470583897064	3431.8773682355095	485.2652940963219	460.92748635048747	3373.76106211646	526.1206755321491
4	0.06666666666666667	468.16413341311625	3631.2274123519305	528.3833158239345	863.7177984541427	3683.756616684249	547.5629576351874	1249.0061927776226	3731.3996787021674	615.5344734897786	1322.6551722413924	3611.765011563615	557.1577445356203	1315.9565061040505	3676.138875198666	520.7701365675944	1273.1898029615224	3708.1958305514186	621.409469562196	468.5889414357561	3513.6533575776466	726.2796058038947	871.0851001345919	3551.2713766962975	739.4837486651845	1236.5252767276997	3605.6490010079724	725.4059470417718	1309.9411292299285	3488.9742989157617	673.1264589308067	1277.674131808235	3456.0413311386123	716.259466126108	1274.6826179742586	3618.0742220822644	717.51452426483	-117.39868098233505	3539.1731998104215	637.0888729044569	-373.4875039831643	3502.8629065641035	629.1766326358788	-221.39237139441897	3448.171760508179	598.4330136043784	-40.04191535829149	3700.822388754182	539.8754808168314	196.54400932344987	3658.841085987673	426.11009949910755	358.0516293836538	3445.96883744498	472.76703365817997	426.0169263585787	3468.939642918677	563.1845872970179	451.3211554106489	3487.0676935335136	600.4000065079879	476.4536587377072	3449.215956460297	564.2724207546438	-14.87345209006785	3520.320698006802	797.9704136097524	226.62076213040754	3355.7549227054024	725.5502511233734	366.9244065802285	3391.7618342889923	574.7550396548393	419.02395866863804	3435.697406560203	486.6528633358375	437.65781874238473	3431.796751722589	485.085982615667	461.14271604732755	3373.6388434293517	526.0127600255834
5	0.08333333333333333	468.17264796629917	3631.27546274753	528.4410022799087	863.7661569680411	3683.552582127197	547.8328201534737	1250.6034998893397	3751.4840347801046	619.9007249966404	1322.8078601548514	3612.0758848177024	557.4197841197063	1310.2302579307986	3673.485839067956	520.8884405920913	1273.2185360695184	3708.476340989273	621.6946117967481	468.5399036452785	3513.7325980599044	726.2862836148925	870.6292337780783	3550.717671732372	739.2572805032521	1236.494248952422	3605.703125954101	725.5168328362088	1310.2471593119467	3492.0994560444815	669.454399900139	1270.5346473416691	3441.9395746686832	703.2296336053938	1274.6630239049443	3618.5612689008294	718.0291206900924	-108.58159419254234	3544.598289955609	639.3721359595241	-373.55760564217667	3502.91138867862	629.1013254869509	-226.09465446551496	3452.165817752914	600.7121806245165	-39.99932969100153	3700.7274720724126	539.8546267300229	196.56811892327343	3659.22086045277	426.2253748834766	358.0755528730512	3445.954421252189	472.7747552541356	423.4855601700677	3449.7174959660474	558.5048929313167	448.4983516498591	3467.8374866776962	595.4620085825205	476.40678822870655	3449.2919597290756	564.1742520515347	-14.876750230502404	3520.481665447258	797.9948047718653	226.58378550424976	3355.845500961779	725.6251447667878	366.8359918038455	3391.5072551794046	574.6896496476537	418.918445814044	3435.4967939179337	486.6398554871092	437.5245343523256	3431.677681035133	485.12566273397516	461.0609534661549	3373.563765715649	525.9950618958319
6	0.1	472.2271705534623	3626.325424578624	525.9893483772988	863.7688892711409	3683.1982887868753	547.8164167241362	1250.7131671172917	3751.546964957511	619.8873604008336	1322.8110592598257	3612.1335966644133	557.4444479242403	1310.079675589472	3673.272374900945	520.6975815720103	1273.4716104842892	3708.621863523613	621.6060811338762	468.41617309291485	3513.609765361376	726.2741384018142	865.6659669853394	3549.025028491718	738.1851508312363	1239.052684996973	3600.4383302304327	722.5994476901367	1302.193737828527	3473.9571807070824	659.4912568014919	1270.5588947009112	3441.809690378577	703.1672187679027	1267.7474716779575	3602.6632983030872	704.1055159385546	-108.49577796820878	3544.559858469506	639.3232605481857	-373.5029339708409	3502.8797235602087	629.150006968815	-221.24760106412418	3448.402417582718	598.6245011968819	-39.9273346070484	3700.8791462948034	539.8652322348814	196.59216777884117	3659.184670636628	426.19297556263064	353.83272578226524	3443.9700333417086	471.6170621288528	423.3739545057792	3449.3070441865693	558.2277388496899	439.9431552524926	3451.3411786371057	581.727307432428	476.28810216034765	3449.622497277913	564.4352123108143	-14.904191424546026	3520.557220070857	798.0446029497637	226.53101997397482	3353.8054809464625	730.2614677688582	366.8982048690716	3391.685965595774	574.7559997903022	422.20280978713527	3432.1397749351945	484.9787112745111	437.66288528760117	3431.651306635546	485.14516379057994	457.89479969058493	3359.7380665395785	514.4235091216846
